<?xml version="1.0" encoding="UTF-8"?>
<!DOCTYPE svg PUBLIC "-//W3C//DTD SVG 1.1//EN" "http://www.w3.org/Graphics/SVG/1.1/DTD/svg11.dtd">
<!-- Creator: CorelDRAW -->
<svg xmlns="http://www.w3.org/2000/svg" xml:space="preserve" width="20.5395mm" height="5.3664mm" version="1.1" style="shape-rendering:geometricPrecision; text-rendering:geometricPrecision; image-rendering:optimizeQuality; fill-rule:evenodd; clip-rule:evenodd"
viewBox="0 0 181.16 47.33"
 xmlns:xlink="http://www.w3.org/1999/xlink"
 xmlns:xodm="http://www.corel.com/coreldraw/odm/2003">
 <defs>
  <style type="text/css">
   <![CDATA[
    .str0 {stroke:#363963;stroke-width:0.33;stroke-miterlimit:10}
    .fil0 {fill:#363963}
    .fil1 {fill:#363963;fill-rule:nonzero}
   ]]>
  </style>
 </defs>
 <g id="Layer_x0020_1">
  <metadata id="CorelCorpID_0Corel-Layer"/>
  <g id="_105553377260576">
   <path class="fil0 str0" d="M169.95 16.73l-0 -0.13c-0.08,-2.29 0.81,-4.41 1.74,-5.49 0.41,-0.48 0.83,-0.76 1.15,-0.76 0.06,0 0.12,0.01 0.17,0.03 0.21,0.1 0.32,0.25 0.36,0.5 0.1,0.63 -0.3,1.76 -1.1,3.08 -0.63,1.04 -1.44,2.12 -2.3,3.06 -0.01,-0.1 -0.02,-0.2 -0.02,-0.3zm-14.97 4.72c-0.67,1.17 -1.24,2.19 -1.79,2.83l-0.04 0.04c-0.33,0.39 -0.67,0.61 -0.91,0.61 -0.33,0 -0.4,-0.49 -0.4,-0.91 0,-0.89 0.25,-2.62 0.94,-4.78 0.83,-2.6 2.01,-4.89 3.31,-6.44 1.36,-1.61 2.82,-2.43 4.36,-2.43 0.15,0 0.3,0.01 0.46,0.02 -1.16,1.26 -2.67,3.81 -3.89,6.65 -0.38,0.89 -0.73,1.77 -1.02,2.63 -0.36,0.6 -0.7,1.19 -1.02,1.77zm-22.12 8.23c-0.3,0.31 -0.45,0.34 -0.51,0.34 -0.12,0 -0.12,-0.22 -0.12,-0.27 0,-1.38 2.63,-6.05 4.98,-8.57 -1.24,3.24 -3.19,7.25 -4.36,8.5zm-3.7 -1.78c-0.48,0.63 -0.96,1.06 -1.18,1.06 -0.04,0 -0.11,0 -0.11,-0.3 0,-1.56 2.72,-6.29 5.87,-9.64 -0.92,3.01 -3.04,6.92 -4.57,8.88zm-7.88 -11.94c-0.21,-0.76 -0.4,-1.83 -0.4,-2.76 0,-0.65 0.16,-1.87 0.75,-1.87 0.24,0 0.58,0.35 0.58,1.12 0,1.02 -0.52,2.41 -0.9,3.43 -0.01,0.03 -0.02,0.05 -0.03,0.07zm-6.37 12.48l-0 0.14 0 -0.14c-0.36,0 -0.42,-0.61 -0.42,-0.98 0,-1.54 0.83,-4.49 2.03,-7.17 1.33,-3 2.8,-5.04 4.07,-5.66 0.06,0.43 0.19,1.21 0.45,1.99 -3.4,9.33 -5.45,11.82 -6.13,11.82zm-9.79 -11.72l-0 -0.13c-0.08,-2.29 0.81,-4.41 1.74,-5.49 0.41,-0.48 0.83,-0.76 1.15,-0.76 0.06,0 0.12,0.01 0.17,0.03 0.21,0.1 0.32,0.25 0.36,0.5 0.1,0.63 -0.3,1.76 -1.1,3.08 -0.63,1.04 -1.44,2.12 -2.3,3.06 -0.01,-0.1 -0.01,-0.2 -0.02,-0.3zm-28.97 9.07l-0.04 0.04c-0.39,0.46 -1.19,1.12 -1.6,1.12 -0.12,0 -0.16,-0.05 -0.19,-0.1 -0.03,-0.05 -0.05,-0.12 -0.05,-0.19 0,-0.39 0.43,-1.05 1.17,-1.82 0.81,-0.82 1.91,-1.69 2.76,-2.3 -0.4,0.77 -1.18,2.19 -2.07,3.24zm-12.18 -4.4c-0.76,1.14 -1.48,2.22 -2.08,2.22l-0.02 0c-0.33,-0.02 -0.49,-0.49 -0.49,-1.39 0,-0.24 0.01,-0.5 0.03,-0.79 0.33,-3.67 3.54,-10.2 7.29,-11.7 0.65,-0.23 1.32,-0.36 2,-0.38 -1.63,1.99 -3.77,5.7 -5.05,9.83 -0.59,0.57 -1.15,1.41 -1.68,2.22zm-16.33 3.86c-1.5,2.3 -4.62,7.05 -6.81,7.05 -1.8,0 -2.17,-2.76 -2.17,-5.07 0,-7.68 6,-26.45 17.12,-26.45 1.26,0 2.44,0.25 3.52,0.73 -1.86,1.94 -4.14,5.79 -6.59,11.12 -2.59,5.63 -4.52,11.06 -5.06,12.61zm-10.01 21.45c-0.98,0 -1.13,-1.05 -1.13,-1.68 0,-4.69 5.64,-10.79 9.22,-13.87 -2.23,7.57 -5.49,15.55 -8.09,15.55zm47.46 -37.4c0.54,-0.63 0.92,-0.85 1.1,-0.85 0.04,0 0.09,0 0.09,0.13 0,0.93 -1.63,2.56 -2.75,3.51 0.55,-1.43 1.14,-2.3 1.56,-2.79zm12.86 -3.85c0.82,0.11 1.63,0.24 2.49,0.38 0.26,0.04 0.52,0.08 0.79,0.12 -2.25,4 -7.24,10.6 -10.45,12.6 1.79,-4.36 4.51,-9.34 7.17,-13.1zm4.61 -4.72c0.28,0 0.34,0.36 0.34,0.65 0,0.91 -0.54,2.45 -1.44,4.14 -0.32,-0.05 -0.64,-0.1 -0.95,-0.15 -0.78,-0.12 -1.51,-0.24 -2.26,-0.34 1.27,-1.74 3.44,-4.3 4.31,-4.3zm78.36 18.56c-0.01,-0.04 -0.03,-0.07 -0.06,-0.09l-0.09 -0.05 -0.05 -0.01c-0.06,0 -0.11,0.03 -0.15,0.07l-1.58 1.88c-0.9,1.08 -1.33,1.65 -2.57,3.3l-0.06 0.08c-1.88,2.51 -4.02,5.34 -5.42,5.34 -1.11,0 -1.57,-1.61 -1.64,-3.12l-0.01 -0.49c0,-2 0.54,-3.95 1.61,-5.77l0.04 -0.08 -0.04 -0.08c-0.01,-0.01 -0.66,-1.32 -0.88,-2.68 0.97,-1.02 1.88,-2.21 2.58,-3.37 0.77,-1.29 1.18,-2.38 1.18,-3.16l-0.02 -0.26c-0.06,-0.37 -0.23,-0.65 -0.52,-0.8l-0.04 -0.02c-0.01,-0.01 -0.03,-0.01 -0.04,-0.02l-0.03 -0.01c-0.11,-0.05 -0.21,-0.07 -0.33,-0.07 -1.38,0 -4.18,3 -4.18,6.48l0.01 0.3c0.03,0.53 0.12,1.04 0.28,1.53 -0.26,0.28 -0.54,0.6 -0.89,1.01 -0.01,0.01 -0.01,0.01 -0.02,0.01l-1.58 1.88c-2.98,3.6 -6.7,8.08 -9.07,8.08 -1.26,0 -1.71,-1.34 -1.71,-2.6 0,-4.14 3.88,-13.15 6.41,-15.91 0.59,-0.64 1.06,-1.01 1.41,-1.28l0.54 -0.43 -0.7 0.12c-0.57,0.09 -1.11,0.19 -1.87,0.8 -0.4,-0.11 -0.81,-0.17 -1.21,-0.17 -1.35,0 -2.7,0.61 -4,1.8 -1.49,1.37 -2.87,3.46 -3.89,5.9 -0.27,0.64 -0.48,1.23 -0.66,1.77 -0.01,0.01 -0.02,0.01 -0.02,0.02l-1.15 1.37c-1.6,1.93 -3.06,3.95 -4.34,5.73 -1.85,2.57 -3.45,4.78 -4.98,6.1 -0.75,0.65 -1.44,0.99 -2,0.99 -0.78,0 -1.22,-0.69 -1.22,-1.94 0,-1.83 0.78,-3.89 1.53,-5.88 0.66,-1.74 1.28,-3.38 1.28,-4.67 0,-1.11 -0.43,-1.77 -1.17,-1.77 -0.19,0 -0.4,0.04 -0.62,0.12 0.17,-0.6 0.41,-1.62 0.41,-2.46 0,-1.27 -0.55,-1.53 -1.01,-1.53 -0.89,0 -2.15,0.89 -3.11,1.7 -0.03,-1.26 -0.58,-2.01 -1.48,-2.01 -1.34,0 -3.19,1.95 -5.16,4.26l-0.01 0 -0.64 0.76c-0.88,1.05 -1.81,1.49 -2.76,1.28 -1.42,-0.31 -2.81,-2.06 -3.75,-4.68l0.1 -0.28c0.48,-1.27 1.01,-2.7 1.01,-3.84 0,-1.03 -0.5,-1.58 -0.98,-1.58 -0.84,0 -1.14,1.26 -1.14,2.43 0,0.26 0.01,0.54 0.04,0.81 -1.82,0.35 -3.51,2.52 -4.76,5.08 -0.01,0.01 -0.01,0.01 -0.02,0.01l-1.58 1.88c-0.9,1.08 -1.33,1.65 -2.57,3.3l-0.06 0.08c-1.89,2.51 -4.02,5.34 -5.42,5.34 -1.11,0 -1.57,-1.61 -1.64,-3.12l-0.01 -0.49c0,-2 0.54,-3.95 1.61,-5.77l0.04 -0.08 -0.04 -0.08c-0.01,-0.01 -0.66,-1.3 -0.88,-2.68 0.97,-1.02 1.88,-2.21 2.57,-3.37 0.77,-1.29 1.18,-2.38 1.18,-3.16l-0.02 -0.26c-0.06,-0.37 -0.23,-0.65 -0.52,-0.8l-0.04 -0.02c-0.01,-0.01 -0.02,-0.01 -0.04,-0.02l-0.03 -0.01c-0.11,-0.05 -0.21,-0.07 -0.33,-0.07 -1.38,0 -4.18,3 -4.18,6.48l0.01 0.3c0.02,0.53 0.12,1.04 0.28,1.53 -0.26,0.28 -0.55,0.6 -0.89,1.01 -0,0 -0.01,0 -0.01,0.01l-0.51 0.61c-0.03,0.03 -0.05,0.06 -0.07,0.09l0 0 -1 1.19c-0.88,1.07 -1.25,1.52 -2.77,3.53 -1.59,2.09 -3.24,4.26 -4.81,5.76 -0.92,0.87 -2.13,1.86 -3.42,1.86 -1.46,0 -2.41,-1.38 -2.41,-3.52 0,-2.71 1.19,-6.68 2.3,-9.51 3.42,-1.75 9.12,-9.47 11.16,-13.2 2.4,0.37 5.06,0.7 8.23,0.7 5.5,-0 9.13,-1.18 10.49,-3.4l0.04 -0.13c0,-0.13 -0.09,-0.23 -0.21,-0.23l-0.03 0 -0.12 0.07 -0.02 0.03c-1.28,2.09 -4.79,3.2 -10.14,3.2 -3.09,0 -5.68,-0.32 -8.02,-0.68 0.59,-1.15 1.49,-3.2 1.49,-4.38 0,-0.67 -0.29,-1.03 -0.81,-1.03 -1.21,0 -3.6,2.36 -5.37,4.72 -1.29,-0.15 -2.4,-0.23 -3.48,-0.23 -2.3,0 -3.66,0.42 -4.27,1.32l-0.05 0.15 0.08 0.18 0.15 0.06 0.13 -0.08 0.02 -0.03c0.52,-0.77 1.81,-1.14 3.93,-1.14 0.99,0 2.01,0.06 3.18,0.19 -2.62,3.6 -5.87,9.28 -7.86,14.65 -0.74,0.68 -1.88,0.72 -3.59,0.72l-0.38 0c-1.46,0 -3.03,0.03 -4.79,0.41 0.78,-1.52 1.12,-2.57 1.75,-4.54 0.29,-0.91 0.66,-2.04 1.16,-3.51 0.91,-0.68 3.67,-2.9 3.67,-4.52 0,-0.46 -0.27,-0.75 -0.7,-0.75 -0.43,0 -0.99,0.28 -1.54,0.76 -1.29,1.14 -2.25,3.28 -2.95,5.03 -2.32,1.87 -5.91,5.52 -8.75,9.48 -1.07,1.49 -3.89,5.44 -5.64,5.44 -1.19,0 -1.79,-0.99 -1.79,-2.93 0,-2.66 1.22,-6.87 3.12,-10.72 2.07,-4.22 4.47,-7.14 6.57,-8.03 0.13,-0.05 0.3,-0.13 0.27,-0.29 -0.03,-0.16 -0.2,-0.16 -0.3,-0.16 -0.28,0 -0.61,0.06 -0.98,0.18 -1.24,0.42 -2.52,1.73 -3.06,2.32l-0.2 -0c-0.8,0 -1.59,0.14 -2.34,0.42 -2.52,0.82 -4.48,2.82 -5.85,5.1 -0.05,0.03 -0.08,0.08 -0.09,0.1 -1.64,2.71 -9.87,10.4 -12.87,12.83 -0.49,0.4 -0.99,0.8 -1.44,1.18 1.8,-5.37 7.16,-21.26 13.79,-28l0.1 -0.1 -0.1 -0.11c-0.09,-0.1 -0.21,-0.15 -0.37,-0.15 -0.4,0 -0.99,0.3 -1.45,0.56 -0.43,0.24 -0.94,0.28 -1.4,0.12 -0.96,-0.35 -2.01,-0.53 -3.1,-0.53 -4.98,0 -9.74,3.35 -13.41,9.43 -3,4.99 -4.95,11.36 -4.95,16.24 0,3.15 0.89,6.84 3.4,6.84 2.1,0 4.69,-3.56 6.25,-5.89 -0.36,1.08 -0.71,2.16 -1.11,3.45 -2.24,1.86 -4.6,4.3 -6.31,6.55 -2.38,3.12 -3.58,5.85 -3.58,8.11 0,1.34 0.58,2.14 1.56,2.14 2.83,0 6.32,-5.99 10.39,-17.8 0.54,-0.48 1.2,-1.01 1.98,-1.64 2.42,-1.96 8.62,-7.68 11.64,-11.22 -0.73,1.7 -1.15,3.41 -1.25,4.78l-0.01 0.37c0,1.88 0.78,2.55 1.51,2.55 0.93,0 1.59,-1.08 2.36,-2.32 0.35,-0.57 0.71,-1.15 1.13,-1.69 -0.45,1.7 -0.69,3.3 -0.69,4.65 0,2.68 0.92,4.16 2.57,4.16 0.75,0 1.53,-0.45 2.6,-1.52 0.94,-0.91 2.04,-2.26 3.37,-4.11 2.32,-3.24 5.37,-6.58 8.06,-8.82 -0.31,0.85 -0.58,1.64 -0.84,2.41 -0.48,1.44 -0.97,2.92 -1.81,4.74 -0.95,0.61 -2.41,1.67 -3.46,2.71 -0.96,0.94 -1.42,1.69 -1.42,2.29 0,0.17 0.04,0.34 0.12,0.48 0.14,0.26 0.36,0.4 0.65,0.4 0.74,0 1.73,-0.9 2.01,-1.18 1.19,-1.15 2.44,-2.88 3.45,-4.75 2.03,-0.49 3.82,-0.49 5.13,-0.49l0.29 0c1.36,0 2.5,-0 3.36,-0.46 -0.97,2.75 -1.58,5.39 -1.58,7.59 0,2.06 0.89,4.47 3.39,4.47 1.07,0 2.29,-0.66 3.72,-2.02 1.61,-1.52 3.26,-3.7 4.87,-5.82 1.52,-2 1.88,-2.45 2.76,-3.51l1 -1.2c0.42,-0.5 0.9,-1.06 1.36,-1.57 0.29,0.68 0.7,1.25 1.2,1.67 -1.1,0.73 -2.24,3.15 -2.24,5.78l0.03 0.69c0.17,2.14 1.2,3.57 2.57,3.57 1.73,0 3.44,-2.15 6.08,-5.67 1.37,-1.82 1.76,-2.31 2.58,-3.3 0.22,-0.27 0.44,-0.53 0.65,-0.78 -0.91,2.24 -1.46,4.58 -1.46,6.17 0,1.34 0.41,2.17 1.08,2.17 2.15,0 5.71,-9.57 6.5,-11.76 0.98,2.52 2.42,4.2 3.88,4.52 1.1,0.24 2.15,-0.25 3.13,-1.42l0.04 -0.04 0.04 -0.03c1.09,-1.31 4,-4.77 5.24,-4.77 0.46,0 0.56,0.69 0.56,1.26 0,0.61 -0.11,1.19 -0.15,1.41 -1.2,1.13 -2.84,3.18 -4.18,5.25 -1.51,2.33 -2.38,4.26 -2.38,5.29 0,0.68 0.32,0.78 0.51,0.78 0.6,0 1.49,-0.94 1.75,-1.23 1.9,-2.09 4.91,-7.07 5.51,-10.43l0.04 -0.23c1.05,-0.91 2.48,-1.84 3.08,-1.84 0.14,0 0.29,0.04 0.29,0.51 0,0.68 -0.35,2 -1.06,4.01 -2.22,2.05 -5.73,7.59 -5.73,9.53 0,0.67 0.38,0.74 0.54,0.74 0.25,0 0.54,-0.14 0.82,-0.4 1.67,-1.37 4.35,-6.25 5.63,-10.26 0.26,-0.14 0.47,-0.21 0.64,-0.21 0.17,0 0.36,0.07 0.36,0.59 0,0.93 -0.59,2.53 -1.23,4.21 -0.81,2.17 -1.73,4.63 -1.73,6.52 0,1.76 0.88,2.94 2.18,2.94 0.73,0 1.55,-0.37 2.38,-1.09 1.58,-1.35 3.19,-3.59 5.06,-6.19 1.28,-1.78 2.73,-3.79 4.32,-5.71 0.18,-0.22 0.38,-0.46 0.59,-0.7 -0.31,1.23 -0.4,2.15 -0.4,2.8 0,0.35 0.02,0.67 0.07,0.96 0.22,1.26 0.79,1.45 1.11,1.45 0.38,0 0.79,-0.24 1.2,-0.71 0.6,-0.67 1.21,-1.76 1.93,-3.02 0.04,-0.08 0.08,-0.15 0.13,-0.23 -0.43,1.58 -0.65,3.03 -0.65,4.24 0,2.62 0.86,3.95 2.57,3.95 2.56,0 6.34,-4.56 9.38,-8.23l0.99 -1.18 0.01 -0c0.42,-0.5 0.9,-1.07 1.36,-1.58 0.29,0.68 0.71,1.25 1.21,1.67 -1.1,0.73 -2.24,3.15 -2.24,5.78l0.03 0.69c0.17,2.14 1.2,3.57 2.57,3.57 1.73,0 3.44,-2.15 6.08,-5.67 1.37,-1.82 1.75,-2.31 2.58,-3.3 0.55,-0.67 1.07,-1.3 1.55,-1.86l0.08 -0.2 -0.03 -0.04z"/>
   <path class="fil1" d="M64.25 44.95c-0.33,0 -0.64,-0.07 -0.94,-0.19 -0.3,-0.13 -0.57,-0.31 -0.8,-0.56 -0.23,-0.24 -0.41,-0.54 -0.55,-0.89 -0.14,-0.35 -0.21,-0.74 -0.21,-1.18 0,-0.44 0.07,-0.84 0.2,-1.19 0.13,-0.36 0.32,-0.66 0.56,-0.92 0.24,-0.26 0.51,-0.45 0.83,-0.59 0.32,-0.14 0.66,-0.21 1.02,-0.21 0.27,0 0.52,0.03 0.74,0.1 0.22,0.07 0.43,0.16 0.62,0.28l0.16 -0.26 0.31 0 0.03 1.95 -0.32 0c-0.04,-0.19 -0.1,-0.4 -0.19,-0.62 -0.08,-0.22 -0.18,-0.41 -0.29,-0.57 -0.12,-0.18 -0.27,-0.31 -0.44,-0.41 -0.17,-0.1 -0.37,-0.15 -0.59,-0.15 -0.25,0 -0.48,0.06 -0.7,0.17 -0.21,0.11 -0.4,0.27 -0.56,0.49 -0.15,0.21 -0.27,0.47 -0.35,0.79 -0.09,0.32 -0.13,0.68 -0.13,1.08 0,0.35 0.04,0.67 0.13,0.96 0.09,0.29 0.22,0.55 0.38,0.77 0.16,0.22 0.36,0.39 0.58,0.51 0.23,0.12 0.48,0.19 0.76,0.19 0.21,0 0.4,-0.03 0.58,-0.1 0.17,-0.07 0.33,-0.15 0.46,-0.26 0.13,-0.11 0.24,-0.24 0.34,-0.39 0.1,-0.14 0.18,-0.3 0.24,-0.47l0.29 0.14c-0.22,0.54 -0.51,0.93 -0.88,1.16 -0.37,0.23 -0.8,0.35 -1.31,0.35zm8.48 -4.96c0.24,0.25 0.43,0.56 0.57,0.91 0.14,0.36 0.2,0.75 0.2,1.18 0,0.44 -0.07,0.83 -0.21,1.19 -0.14,0.36 -0.33,0.66 -0.58,0.91 -0.24,0.25 -0.52,0.44 -0.83,0.57 -0.32,0.13 -0.66,0.2 -1.01,0.2 -0.38,0 -0.73,-0.07 -1.06,-0.22 -0.33,-0.14 -0.6,-0.34 -0.84,-0.6 -0.23,-0.25 -0.41,-0.55 -0.54,-0.91 -0.13,-0.36 -0.2,-0.74 -0.2,-1.15 0,-0.45 0.07,-0.84 0.21,-1.19 0.14,-0.35 0.33,-0.65 0.57,-0.91 0.24,-0.25 0.52,-0.45 0.84,-0.58 0.32,-0.13 0.66,-0.2 1.01,-0.2 0.36,0 0.7,0.07 1.03,0.2 0.32,0.14 0.6,0.33 0.83,0.58zm-0.58 3.89c0.15,-0.24 0.25,-0.5 0.32,-0.8 0.06,-0.3 0.1,-0.63 0.1,-0.99 0,-0.37 -0.04,-0.72 -0.11,-1.03 -0.07,-0.31 -0.18,-0.58 -0.32,-0.8 -0.14,-0.22 -0.32,-0.39 -0.53,-0.51 -0.21,-0.12 -0.46,-0.18 -0.73,-0.18 -0.31,0 -0.57,0.07 -0.79,0.21 -0.22,0.14 -0.39,0.33 -0.53,0.57 -0.13,0.23 -0.22,0.49 -0.29,0.8 -0.06,0.31 -0.09,0.62 -0.09,0.96 0,0.37 0.03,0.71 0.1,1.01 0.07,0.3 0.17,0.56 0.32,0.8 0.14,0.23 0.31,0.4 0.52,0.53 0.21,0.13 0.46,0.19 0.76,0.19 0.28,0 0.52,-0.06 0.74,-0.19 0.22,-0.13 0.4,-0.31 0.54,-0.54zm7.73 -0.76l-0.18 1.71 -4.4 0 0 -0.13 3.45 -5.04 -1.26 0c-0.15,0 -0.27,0 -0.37,0.01 -0.1,0.01 -0.19,0.02 -0.27,0.03 -0.17,0.03 -0.36,0.17 -0.57,0.42 -0.21,0.25 -0.37,0.51 -0.48,0.78l-0.27 0 0.17 -1.55 4.11 0 0 0.13 -3.45 5.04 1.3 0c0.22,0 0.45,-0.02 0.7,-0.05 0.25,-0.03 0.41,-0.08 0.48,-0.16 0.17,-0.16 0.32,-0.36 0.47,-0.59 0.14,-0.23 0.25,-0.44 0.32,-0.61l0.27 0zm4.23 1.71l-2.47 0 0 -0.27c0.07,-0.01 0.17,-0.01 0.3,-0.02 0.13,-0.01 0.22,-0.02 0.28,-0.04 0.08,-0.03 0.15,-0.08 0.19,-0.14 0.04,-0.06 0.06,-0.14 0.06,-0.24l0 -3.97c0,-0.09 -0.01,-0.17 -0.04,-0.23 -0.03,-0.06 -0.1,-0.11 -0.2,-0.15 -0.08,-0.03 -0.17,-0.06 -0.29,-0.09 -0.12,-0.03 -0.22,-0.04 -0.29,-0.05l0 -0.27 2.47 0 0 0.27c-0.08,0 -0.18,0.01 -0.29,0.03 -0.11,0.02 -0.21,0.04 -0.29,0.06 -0.1,0.03 -0.16,0.08 -0.19,0.15 -0.03,0.07 -0.05,0.15 -0.05,0.23l0 3.97c0,0.08 0.02,0.16 0.06,0.23 0.04,0.06 0.1,0.12 0.19,0.15 0.05,0.02 0.14,0.04 0.26,0.07 0.12,0.02 0.23,0.04 0.31,0.04l0 0.27zm7.7 -5.21c-0.07,0 -0.18,0.02 -0.33,0.06 -0.15,0.04 -0.26,0.08 -0.32,0.12 -0.09,0.07 -0.15,0.19 -0.19,0.37 -0.03,0.18 -0.05,0.41 -0.05,0.7l0 4.01 -0.34 0 -3.32 -4.49 0 2.83c0,0.32 0.02,0.56 0.06,0.73 0.04,0.17 0.1,0.29 0.18,0.37 0.06,0.06 0.18,0.11 0.37,0.16 0.19,0.05 0.31,0.08 0.37,0.08l0 0.27 -2.25 0 0 -0.27c0.07,-0.01 0.19,-0.03 0.35,-0.08 0.16,-0.04 0.27,-0.09 0.31,-0.12 0.09,-0.07 0.15,-0.18 0.19,-0.33 0.03,-0.15 0.05,-0.4 0.05,-0.76l0 -2.7c0,-0.12 -0.02,-0.24 -0.06,-0.36 -0.04,-0.12 -0.1,-0.21 -0.17,-0.27 -0.09,-0.09 -0.22,-0.16 -0.38,-0.22 -0.16,-0.06 -0.29,-0.09 -0.39,-0.1l0 -0.27 1.56 0 3.08 4.18 0 -2.61c0,-0.32 -0.02,-0.57 -0.06,-0.74 -0.04,-0.17 -0.1,-0.28 -0.18,-0.34 -0.07,-0.05 -0.19,-0.1 -0.35,-0.14 -0.16,-0.05 -0.29,-0.07 -0.37,-0.08l0 -0.27 2.23 0 0 0.27zm7.5 5.21l-2.27 0 0 -0.27c0.06,-0.01 0.15,-0.01 0.27,-0.02 0.12,-0.01 0.2,-0.02 0.24,-0.04 0.08,-0.03 0.13,-0.08 0.17,-0.14 0.04,-0.06 0.05,-0.15 0.05,-0.25l0 -1.95 -2.58 0 0 1.91c0,0.09 0.01,0.17 0.04,0.23 0.03,0.06 0.09,0.11 0.18,0.16 0.04,0.02 0.12,0.05 0.23,0.07 0.11,0.02 0.2,0.04 0.26,0.04l0 0.27 -2.27 0 0 -0.27c0.06,-0.01 0.15,-0.01 0.27,-0.02 0.12,-0.01 0.2,-0.02 0.24,-0.04 0.08,-0.03 0.13,-0.08 0.17,-0.14 0.04,-0.06 0.05,-0.15 0.05,-0.25l0 -3.95c0,-0.08 -0.02,-0.16 -0.05,-0.23 -0.03,-0.07 -0.09,-0.12 -0.18,-0.16 -0.07,-0.03 -0.15,-0.06 -0.25,-0.09 -0.1,-0.02 -0.19,-0.04 -0.26,-0.04l0 -0.27 2.27 0 0 0.27c-0.07,0 -0.16,0.01 -0.26,0.03 -0.11,0.02 -0.18,0.04 -0.24,0.06 -0.09,0.03 -0.15,0.08 -0.18,0.15 -0.03,0.07 -0.04,0.15 -0.04,0.24l0 1.7 2.58 0 0 -1.66c0,-0.08 -0.01,-0.16 -0.05,-0.23 -0.03,-0.07 -0.09,-0.12 -0.17,-0.16 -0.07,-0.03 -0.15,-0.06 -0.25,-0.09 -0.1,-0.02 -0.19,-0.04 -0.26,-0.04l0 -0.27 2.27 0 0 0.27c-0.07,0 -0.16,0.01 -0.26,0.03 -0.1,0.02 -0.18,0.04 -0.23,0.06 -0.09,0.03 -0.15,0.08 -0.18,0.15 -0.03,0.07 -0.04,0.15 -0.04,0.24l0 3.95c0,0.09 0.02,0.17 0.04,0.23 0.03,0.06 0.09,0.11 0.18,0.16 0.04,0.02 0.12,0.05 0.23,0.07 0.11,0.02 0.2,0.04 0.26,0.04l0 0.27zm7.27 0l-2.28 0 0 -0.27c0.2,-0.01 0.37,-0.04 0.5,-0.08 0.13,-0.04 0.2,-0.09 0.2,-0.14 0,-0.02 -0,-0.05 -0.01,-0.09 -0,-0.03 -0.01,-0.06 -0.02,-0.09l-0.46 -1.23 -1.92 0c-0.07,0.18 -0.13,0.34 -0.17,0.47 -0.04,0.13 -0.09,0.26 -0.12,0.37 -0.03,0.11 -0.06,0.2 -0.07,0.27 -0.01,0.07 -0.02,0.13 -0.02,0.17 0,0.1 0.08,0.18 0.24,0.24 0.16,0.06 0.34,0.09 0.55,0.1l0 0.27 -2.06 0 0 -0.27c0.07,-0.01 0.15,-0.02 0.25,-0.04 0.1,-0.02 0.18,-0.06 0.25,-0.1 0.1,-0.07 0.18,-0.14 0.24,-0.22 0.06,-0.07 0.11,-0.18 0.17,-0.31 0.28,-0.69 0.58,-1.46 0.91,-2.32 0.33,-0.86 0.63,-1.62 0.89,-2.29l0.31 0 1.83 4.73c0.04,0.1 0.08,0.18 0.13,0.24 0.05,0.06 0.12,0.12 0.2,0.18 0.06,0.04 0.13,0.07 0.23,0.09 0.1,0.02 0.18,0.04 0.24,0.04l0 0.27zm-2.21 -2.24l-0.83 -2.12 -0.81 2.12 1.64 0zm12.71 -2.97c-0.07,0 -0.18,0.02 -0.33,0.06 -0.15,0.04 -0.26,0.08 -0.32,0.12 -0.09,0.07 -0.15,0.19 -0.19,0.37 -0.03,0.18 -0.05,0.41 -0.05,0.7l0 4.01 -0.34 0 -3.32 -4.49 0 2.83c0,0.32 0.02,0.56 0.06,0.73 0.04,0.17 0.1,0.29 0.18,0.37 0.06,0.06 0.18,0.11 0.37,0.16 0.19,0.05 0.31,0.08 0.37,0.08l0 0.27 -2.25 0 0 -0.27c0.07,-0.01 0.19,-0.03 0.35,-0.08 0.16,-0.04 0.27,-0.09 0.31,-0.12 0.09,-0.07 0.15,-0.18 0.19,-0.33 0.03,-0.15 0.05,-0.4 0.05,-0.76l0 -2.7c0,-0.12 -0.02,-0.24 -0.06,-0.36 -0.04,-0.12 -0.1,-0.21 -0.17,-0.27 -0.09,-0.09 -0.22,-0.16 -0.38,-0.22 -0.16,-0.06 -0.29,-0.09 -0.39,-0.1l0 -0.27 1.57 0 3.08 4.18 0 -2.61c0,-0.32 -0.02,-0.57 -0.06,-0.74 -0.04,-0.17 -0.1,-0.28 -0.18,-0.34 -0.07,-0.05 -0.19,-0.1 -0.35,-0.14 -0.16,-0.05 -0.29,-0.07 -0.37,-0.08l0 -0.27 2.23 0 0 0.27zm6.94 5.21l-2.28 0 0 -0.27c0.2,-0.01 0.37,-0.04 0.5,-0.08 0.13,-0.04 0.2,-0.09 0.2,-0.14 0,-0.02 -0,-0.05 -0.01,-0.09 -0.01,-0.03 -0.01,-0.06 -0.02,-0.09l-0.46 -1.23 -1.92 0c-0.07,0.18 -0.13,0.34 -0.18,0.47 -0.04,0.13 -0.08,0.26 -0.12,0.37 -0.03,0.11 -0.06,0.2 -0.07,0.27 -0.01,0.07 -0.02,0.13 -0.02,0.17 0,0.1 0.08,0.18 0.24,0.24 0.16,0.06 0.34,0.09 0.55,0.1l0 0.27 -2.06 0 0 -0.27c0.07,-0.01 0.15,-0.02 0.25,-0.04 0.1,-0.02 0.18,-0.06 0.25,-0.1 0.1,-0.07 0.18,-0.14 0.24,-0.22 0.06,-0.07 0.11,-0.18 0.17,-0.31 0.28,-0.69 0.58,-1.46 0.91,-2.32 0.33,-0.86 0.63,-1.62 0.89,-2.29l0.31 0 1.83 4.73c0.04,0.1 0.08,0.18 0.13,0.24 0.05,0.06 0.12,0.12 0.2,0.18 0.06,0.04 0.13,0.07 0.23,0.09 0.1,0.02 0.17,0.04 0.24,0.04l0 0.27zm-2.21 -2.24l-0.83 -2.12 -0.81 2.12 1.64 0zm0.17 -4.23c-0.11,0.06 -0.29,0.14 -0.53,0.25 -0.24,0.11 -0.51,0.25 -0.81,0.39l-0.12 -0.15c0.24,-0.22 0.43,-0.41 0.58,-0.56 0.15,-0.15 0.29,-0.29 0.44,-0.44 0.08,-0.09 0.16,-0.15 0.23,-0.19 0.07,-0.04 0.14,-0.06 0.22,-0.06 0.1,0 0.18,0.03 0.25,0.09 0.07,0.06 0.1,0.13 0.1,0.22 0,0.11 -0.03,0.2 -0.1,0.26 -0.07,0.07 -0.15,0.12 -0.26,0.18zm9.17 1.26c-0.07,0 -0.18,0.02 -0.32,0.05 -0.14,0.03 -0.25,0.07 -0.34,0.13 -0.09,0.06 -0.15,0.18 -0.18,0.37 -0.03,0.19 -0.05,0.41 -0.05,0.68l0 2.38c0,0.3 -0.06,0.57 -0.19,0.79 -0.13,0.22 -0.29,0.41 -0.5,0.55 -0.2,0.14 -0.42,0.24 -0.64,0.3 -0.23,0.06 -0.44,0.09 -0.65,0.09 -0.33,0 -0.62,-0.04 -0.88,-0.13 -0.26,-0.09 -0.47,-0.2 -0.65,-0.35 -0.17,-0.15 -0.3,-0.31 -0.39,-0.5 -0.09,-0.19 -0.13,-0.39 -0.13,-0.59l0 -3.24c0,-0.09 -0.02,-0.17 -0.04,-0.23 -0.03,-0.06 -0.09,-0.11 -0.18,-0.17 -0.07,-0.04 -0.15,-0.06 -0.25,-0.09 -0.1,-0.02 -0.18,-0.04 -0.25,-0.04l0 -0.27 2.28 0 0 0.27c-0.07,0 -0.16,0.01 -0.27,0.03 -0.11,0.02 -0.19,0.04 -0.24,0.06 -0.09,0.03 -0.15,0.08 -0.17,0.15 -0.03,0.07 -0.04,0.15 -0.04,0.24l0 3.03c0,0.15 0.01,0.3 0.05,0.46 0.03,0.16 0.09,0.31 0.19,0.45 0.1,0.14 0.24,0.26 0.41,0.35 0.17,0.09 0.41,0.14 0.71,0.14 0.28,0 0.52,-0.04 0.71,-0.14 0.19,-0.09 0.34,-0.21 0.45,-0.35 0.1,-0.14 0.18,-0.28 0.22,-0.44 0.04,-0.15 0.06,-0.3 0.06,-0.46l0 -2.25c0,-0.28 -0.02,-0.52 -0.06,-0.7 -0.04,-0.18 -0.1,-0.3 -0.18,-0.36 -0.09,-0.07 -0.21,-0.11 -0.37,-0.15 -0.15,-0.04 -0.27,-0.06 -0.36,-0.06l0 -0.27 2.24 0 0 0.27zm6.28 1.21l-0.27 0c-0.02,-0.09 -0.06,-0.2 -0.12,-0.33 -0.06,-0.13 -0.13,-0.25 -0.2,-0.36 -0.08,-0.12 -0.16,-0.22 -0.25,-0.31 -0.09,-0.09 -0.18,-0.14 -0.26,-0.15 -0.08,-0.01 -0.18,-0.02 -0.3,-0.02 -0.12,-0.01 -0.23,-0.01 -0.33,-0.01l-0.22 0 0 4.38c0,0.09 0.02,0.16 0.05,0.23 0.04,0.07 0.1,0.13 0.19,0.17 0.05,0.02 0.14,0.04 0.29,0.07 0.15,0.03 0.26,0.05 0.35,0.05l0 0.27 -2.59 0 0 -0.27c0.07,-0.01 0.18,-0.01 0.33,-0.03 0.15,-0.02 0.25,-0.03 0.31,-0.06 0.08,-0.03 0.15,-0.08 0.19,-0.15 0.04,-0.06 0.06,-0.15 0.06,-0.25l0 -4.42 -0.22 0c-0.08,0 -0.18,0 -0.3,0 -0.12,0 -0.23,0.01 -0.34,0.03 -0.08,0.01 -0.17,0.06 -0.26,0.15 -0.09,0.09 -0.17,0.2 -0.25,0.31 -0.08,0.11 -0.15,0.24 -0.2,0.37 -0.06,0.13 -0.1,0.24 -0.13,0.32l-0.27 0 0 -1.49 4.77 0 0 1.49zm4.22 3.99l-2.47 0 0 -0.27c0.07,-0.01 0.17,-0.01 0.3,-0.02 0.13,-0.01 0.22,-0.02 0.28,-0.04 0.08,-0.03 0.15,-0.08 0.19,-0.14 0.04,-0.06 0.06,-0.14 0.06,-0.24l0 -3.97c0,-0.09 -0.01,-0.17 -0.04,-0.23 -0.03,-0.06 -0.1,-0.11 -0.2,-0.15 -0.08,-0.03 -0.17,-0.06 -0.29,-0.09 -0.12,-0.03 -0.22,-0.04 -0.29,-0.05l0 -0.27 2.47 0 0 0.27c-0.08,0 -0.18,0.01 -0.29,0.03 -0.11,0.02 -0.21,0.04 -0.29,0.06 -0.1,0.03 -0.16,0.08 -0.19,0.15 -0.03,0.07 -0.05,0.15 -0.05,0.23l0 3.97c0,0.08 0.02,0.16 0.06,0.23 0.04,0.06 0.1,0.12 0.19,0.15 0.05,0.02 0.14,0.04 0.26,0.07 0.12,0.02 0.23,0.04 0.31,0.04l0 0.27zm4.49 0.13c-0.33,0 -0.64,-0.07 -0.94,-0.19 -0.3,-0.13 -0.57,-0.31 -0.8,-0.56 -0.23,-0.24 -0.41,-0.54 -0.55,-0.89 -0.14,-0.35 -0.21,-0.74 -0.21,-1.18 0,-0.44 0.07,-0.84 0.2,-1.19 0.13,-0.36 0.32,-0.66 0.56,-0.92 0.24,-0.26 0.51,-0.45 0.83,-0.59 0.32,-0.14 0.66,-0.21 1.02,-0.21 0.27,0 0.52,0.03 0.74,0.1 0.22,0.07 0.43,0.16 0.62,0.28l0.16 -0.26 0.31 0 0.03 1.95 -0.32 0c-0.04,-0.19 -0.1,-0.4 -0.19,-0.62 -0.08,-0.22 -0.18,-0.41 -0.29,-0.57 -0.12,-0.18 -0.27,-0.31 -0.44,-0.41 -0.17,-0.1 -0.37,-0.15 -0.59,-0.15 -0.25,0 -0.48,0.06 -0.7,0.17 -0.22,0.11 -0.4,0.27 -0.56,0.49 -0.15,0.21 -0.27,0.47 -0.35,0.79 -0.08,0.32 -0.13,0.68 -0.13,1.08 0,0.35 0.04,0.67 0.13,0.96 0.09,0.29 0.22,0.55 0.38,0.77 0.16,0.22 0.36,0.39 0.58,0.51 0.23,0.12 0.48,0.19 0.76,0.19 0.21,0 0.4,-0.03 0.58,-0.1 0.17,-0.07 0.33,-0.15 0.46,-0.26 0.13,-0.11 0.24,-0.24 0.34,-0.39 0.1,-0.14 0.18,-0.3 0.24,-0.47l0.29 0.14c-0.22,0.54 -0.51,0.93 -0.88,1.16 -0.37,0.23 -0.8,0.35 -1.31,0.35zm9.16 -0.13l-2.28 0 0 -0.27c0.2,-0.01 0.37,-0.04 0.5,-0.08 0.13,-0.04 0.2,-0.09 0.2,-0.14 0,-0.02 -0,-0.05 -0.01,-0.09 -0,-0.03 -0.01,-0.06 -0.02,-0.09l-0.46 -1.23 -1.92 0c-0.07,0.18 -0.13,0.34 -0.17,0.47 -0.04,0.13 -0.09,0.26 -0.12,0.37 -0.03,0.11 -0.06,0.2 -0.07,0.27 -0.01,0.07 -0.02,0.13 -0.02,0.17 0,0.1 0.08,0.18 0.24,0.24 0.16,0.06 0.34,0.09 0.55,0.1l0 0.27 -2.06 0 0 -0.27c0.07,-0.01 0.15,-0.02 0.25,-0.04 0.1,-0.02 0.18,-0.06 0.25,-0.1 0.1,-0.07 0.18,-0.14 0.24,-0.22 0.06,-0.07 0.11,-0.18 0.17,-0.31 0.28,-0.69 0.58,-1.46 0.91,-2.32 0.33,-0.86 0.63,-1.62 0.89,-2.29l0.31 0 1.83 4.73c0.04,0.1 0.08,0.18 0.13,0.24 0.05,0.06 0.12,0.12 0.2,0.18 0.06,0.04 0.13,0.07 0.23,0.09 0.1,0.02 0.18,0.04 0.24,0.04l0 0.27zm-2.21 -2.24l-0.83 -2.12 -0.81 2.12 1.64 0z"/>
   <path class="fil0" d="M13.22 9.21l-0.14 2.39 -6.07 0.13c-0.13,0.71 0.09,1.08 0.33,1.58 1.92,0.34 4.05,-0.12 5.71,0.16l-0.68 15.92c-0.21,3.29 0.73,7.26 -4.91,3.97 -1.81,-1.06 -1.95,-1.08 -3.1,-2.41l2.58 0.06c-0.3,-1.24 -1.63,-1.34 -3.41,-3.46l-2.93 -4.07c-0.65,0.84 -0.65,4.88 -0.57,5.83 0.13,1.7 0.32,4.42 1.45,5.21 0.7,-0.86 0.55,-2.22 1.3,-2.91 4.37,4.91 2.27,2.99 7.86,6.37l2.97 2.07c0.65,-0.37 1.66,-1.38 3.29,-2.19 3.59,-1.78 5.17,-2.48 7.88,-5.54 0.56,-0.64 0.66,-1.07 1.15,-1.58 0.44,1.04 0.12,1.94 0.54,2.65 0.77,-0.14 0.97,-1.25 1.2,-2.06 0.53,-1.84 0.89,-7.35 0.23,-9.3 -0.6,0.48 -2.86,4.96 -4.33,6.7 -0.68,0.81 -1.34,1.2 -1.64,2.08 0.85,0.12 1.7,-0.8 2.97,-1.1 -0.37,2.01 -6.59,5.73 -8.31,5.11 -1.17,-0.42 -1.05,-2.33 -1.16,-3.64 -0.54,-6.04 0.1,-11.9 -0,-17.95 1.44,0.14 5.04,0.37 6.01,-0.32l-0.07 -1.03c-1.27,-0.4 -4.44,-0.11 -5.93,-0.15 -0.08,-0.61 -0.16,-1.59 0.09,-2.09 0.54,-1.05 2.84,-0.26 3.61,-3.52 0.34,-1.42 0.33,-2.7 -0.48,-3.69 -3.75,-4.59 -8.4,-1.21 -9.07,0.85 -0.88,2.71 1.28,5.82 3.63,5.9zm-0.01 -1.62c-3.69,-0.87 -2.91,-5.64 1.25,-5.8 4.4,-0.16 4.19,5.97 0.95,5.66l-0.11 -2.51 -2.09 0.05 0.01 2.6z"/>
  </g>
 </g>
</svg>
